# xmcd CD database file
#
# Track frame offsets:
#	150
#	17249
#	30520
#	42551
#	56624
#	76613
#	91661
#	106705
#	121730
#	131352
#	140196
#	150933
#
# Disc length: 2152 seconds
#
# Revision: 0
# Processed by: cddbd v1.5.2PL0 Copyright (c) Steve Scherf et al.
# Submitted via: CDex 1.51
#
DISCID=8608660c
DTITLE=Various Artist - 100% Country CD 5
DYEAR=2006
DGENRE=Country
TTITLE0=The heart knows the truth - PE-TO Bandet
TTITLE1=Turn back time - Rune Rudberg
TTITLE2=If you ever want my loving - Heidi Hauge
TTITLE3=Annie's song - John Denver
TTITLE4=I de saliges kvarter - Håkon Banken
TTITLE5=Another somebody done somebody wrong song - B. J. Thomas
TTITLE6=Når det é regnvær - Ottar Big Hand Johansen
TTITLE7=Both sides now - Anne Murray
TTITLE8=Let's pretend - Willie Nelson
TTITLE9=Billy Bayou - Roger Miller
TTITLE10=Moanin' the blues - Hank Williams
TTITLE11=Don't fence me in - Gene Autry
EXTD=YEAR: 2006
EXTT0=
EXTT1=
EXTT2=
EXTT3=
EXTT4=
EXTT5=
EXTT6=
EXTT7=
EXTT8=
EXTT9=
EXTT10=
EXTT11=
PLAYORDER=
